<?xml version="1.0" standalone="no"?>
<svg xmlns:xlink="http://www.w3.org/1999/xlink" id="wave" style="transform:rotate(0deg); transition: 0.3s" viewBox="0 0 1440 340" version="1.1" xmlns="http://www.w3.org/2000/svg"><defs><linearGradient id="sw-gradient-0" x1="0" x2="0" y1="1" y2="0"><stop stop-color="rgba(255, 255, 255, 1)" offset="0%"/><stop stop-color="rgba(255, 255, 255, 1)" offset="100%"/></linearGradient></defs><path style="transform:translate(0, 0px); opacity:1" fill="url(#sw-gradient-0)" d="M0,204L34.3,215.3C68.6,227,137,249,206,226.7C274.3,204,343,136,411,113.3C480,91,549,113,617,147.3C685.7,181,754,227,823,232.3C891.4,238,960,204,1029,204C1097.1,204,1166,238,1234,226.7C1302.9,215,1371,159,1440,113.3C1508.6,68,1577,34,1646,39.7C1714.3,45,1783,91,1851,141.7C1920,193,1989,249,2057,272C2125.7,295,2194,283,2263,232.3C2331.4,181,2400,91,2469,73.7C2537.1,57,2606,113,2674,147.3C2742.9,181,2811,193,2880,164.3C2948.6,136,3017,68,3086,51C3154.3,34,3223,68,3291,102C3360,136,3429,170,3497,181.3C3565.7,193,3634,181,3703,198.3C3771.4,215,3840,261,3909,232.3C3977.1,204,4046,102,4114,62.3C4182.9,23,4251,45,4320,73.7C4388.6,102,4457,136,4526,175.7C4594.3,215,4663,261,4731,266.3C4800,272,4869,238,4903,221L4937.1,204L4937.1,340L4902.9,340C4868.6,340,4800,340,4731,340C4662.9,340,4594,340,4526,340C4457.1,340,4389,340,4320,340C4251.4,340,4183,340,4114,340C4045.7,340,3977,340,3909,340C3840,340,3771,340,3703,340C3634.3,340,3566,340,3497,340C3428.6,340,3360,340,3291,340C3222.9,340,3154,340,3086,340C3017.1,340,2949,340,2880,340C2811.4,340,2743,340,2674,340C2605.7,340,2537,340,2469,340C2400,340,2331,340,2263,340C2194.3,340,2126,340,2057,340C1988.6,340,1920,340,1851,340C1782.9,340,1714,340,1646,340C1577.1,340,1509,340,1440,340C1371.4,340,1303,340,1234,340C1165.7,340,1097,340,1029,340C960,340,891,340,823,340C754.3,340,686,340,617,340C548.6,340,480,340,411,340C342.9,340,274,340,206,340C137.1,340,69,340,34,340L0,340Z"/></svg>